<svg width="301" height="111" viewBox="0 0 301 111" fill="none" xmlns="http://www.w3.org/2000/svg">
<mask id="path-1-inside-1_12_11" fill="white">
<path d="M53.587 3.18354C43.012 3.18354 32.6745 6.31939 23.8817 12.1946C15.0889 18.0697 8.23573 26.4203 4.18886 36.1903C0.141975 45.9604 -0.916872 56.711 1.14621 67.0828C3.20929 77.4546 8.30164 86.9818 15.7793 94.4594C23.257 101.937 32.7841 107.029 43.1559 109.093C53.5277 111.156 64.2784 110.097 74.0484 106.05C83.8184 102.003 92.169 95.1498 98.0442 86.357C103.919 77.5642 107.055 67.2267 107.055 56.6517L53.587 56.6517L53.587 3.18354Z"/>
</mask>
<path d="M53.587 3.18354C43.012 3.18354 32.6745 6.31939 23.8817 12.1946C15.0889 18.0697 8.23573 26.4203 4.18886 36.1903C0.141975 45.9604 -0.916872 56.711 1.14621 67.0828C3.20929 77.4546 8.30164 86.9818 15.7793 94.4594C23.257 101.937 32.7841 107.029 43.1559 109.093C53.5277 111.156 64.2784 110.097 74.0484 106.05C83.8184 102.003 92.169 95.1498 98.0442 86.357C103.919 77.5642 107.055 67.2267 107.055 56.6517L53.587 56.6517L53.587 3.18354Z" stroke="black" stroke-width="10" mask="url(#path-1-inside-1_12_11)"/>
<path d="M282.524 33.4885C280.067 33.4885 278.247 33.8614 277.062 34.6072C275.878 35.3531 275.285 36.5815 275.285 38.2924C275.285 39.9157 275.878 41.2099 277.062 42.175C278.291 43.1402 279.958 43.6228 282.064 43.6228C283.95 43.6228 285.639 43.2938 287.131 42.6357C288.622 41.9776 289.807 41.1002 290.684 40.0034C291.562 38.8628 292.022 37.5905 292.066 36.1866L293.514 42.5699C292.417 44.8512 290.75 46.5622 288.513 47.7028C286.275 48.8435 283.599 49.4138 280.484 49.4138C277.984 49.4138 275.812 48.9312 273.969 47.9661C272.127 47.0009 270.701 45.7067 269.692 44.0835C268.683 42.4163 268.178 40.5737 268.178 38.5557C268.178 35.3969 269.319 32.8743 271.6 30.9879C273.925 29.1014 277.194 28.1362 281.405 28.0924H292.988V33.4885H282.524ZM292 26.9078C292 24.6265 291.298 22.8497 289.895 21.5775C288.491 20.3052 286.407 19.6691 283.643 19.6691C281.976 19.6691 280.265 19.9762 278.51 20.5904C276.799 21.2046 275.066 22.1039 273.311 23.2884L270.218 18.4187C271.842 17.4097 273.377 16.5761 274.825 15.9181C276.273 15.26 277.808 14.7555 279.431 14.4045C281.098 14.0535 283.051 13.878 285.288 13.878C289.807 13.878 293.273 14.9748 295.686 17.1684C298.142 19.3181 299.393 22.3013 299.437 26.1181L299.502 49.0848H292.066L292 26.9078Z" fill="black"/>
<path d="M246.483 13.878C249.817 13.878 252.734 14.6239 255.235 16.1155C257.736 17.6071 259.688 19.691 261.092 22.3671C262.496 25.0433 263.198 28.1582 263.198 31.7117C263.198 35.1776 262.496 38.2486 261.092 40.9247C259.732 43.557 257.801 45.6189 255.301 47.1106C252.844 48.6022 249.948 49.348 246.614 49.348C243.412 49.348 240.67 48.6461 238.388 47.2422C236.151 45.8383 234.44 43.8202 233.255 41.1879C232.071 38.5118 231.479 35.3531 231.479 31.7117C231.479 27.9388 232.071 24.7362 233.255 22.1039C234.44 19.4278 236.151 17.3877 238.388 15.9839C240.67 14.58 243.368 13.878 246.483 13.878ZM244.903 19.8665C242.841 19.8665 240.999 20.371 239.375 21.38C237.752 22.3891 236.48 23.771 235.559 25.5259C234.681 27.2369 234.242 29.233 234.242 31.5143C234.242 33.7956 234.681 35.8356 235.559 37.6344C236.48 39.3892 237.752 40.7712 239.375 41.7802C240.999 42.7454 242.841 43.228 244.903 43.228C247.009 43.228 248.852 42.7234 250.431 41.7144C252.054 40.7054 253.305 39.3234 254.182 37.5686C255.103 35.8137 255.564 33.7956 255.564 31.5143C255.564 29.2769 255.103 27.2807 254.182 25.5259C253.305 23.771 252.054 22.3891 250.431 21.38C248.852 20.371 247.009 19.8665 244.903 19.8665ZM226.675 0.255997H234.242V49.0848H226.675V0.255997Z" fill="black"/>
<path d="M183.178 29.3427C183.178 26.5788 182.454 24.4291 181.007 22.8936C179.559 21.3142 177.541 20.5246 174.952 20.5246C171.925 20.6123 169.534 21.731 167.779 23.8807C166.068 26.0304 165.213 28.6846 165.213 31.8434H163.107C163.107 27.544 163.699 24.0781 164.884 21.4458C166.112 18.8136 167.823 16.9052 170.017 15.7206C172.254 14.4922 174.887 13.878 177.914 13.878C180.59 13.878 182.871 14.4264 184.758 15.5232C186.688 16.62 188.158 18.1774 189.167 20.1955C190.22 22.1697 190.746 24.5607 190.746 27.3685V49.0848H183.178V29.3427ZM208.646 29.3427C208.646 26.5788 207.9 24.4291 206.408 22.8936C204.96 21.3142 202.942 20.5246 200.354 20.5246C197.371 20.6123 195.024 21.731 193.313 23.8807C191.602 26.0304 190.746 28.6846 190.746 31.8434H188.574C188.574 27.544 189.167 24.0781 190.351 21.4458C191.58 18.8136 193.291 16.9052 195.484 15.7206C197.722 14.4922 200.354 13.878 203.381 13.878C206.057 13.878 208.338 14.4264 210.225 15.5232C212.155 16.62 213.625 18.1774 214.634 20.1955C215.687 22.1697 216.213 24.5607 216.213 27.3685V49.0848H208.646V29.3427ZM157.711 14.1413H165.213V49.0848H157.711V14.1413Z" fill="black"/>
<path d="M121.167 33.8834C121.167 36.6034 121.891 38.7531 123.339 40.3324C124.786 41.8679 126.783 42.6357 129.327 42.6357C132.354 42.548 134.701 41.4292 136.368 39.2795C138.079 37.1298 138.935 34.4756 138.935 31.3169H140.975C140.975 35.6163 140.383 39.0821 139.198 41.7144C138.014 44.3467 136.325 46.277 134.131 47.5054C131.981 48.6899 129.415 49.3041 126.432 49.348C123.755 49.348 121.452 48.7996 119.522 47.7028C117.635 46.606 116.166 45.0486 115.113 43.0305C114.104 41.0125 113.599 38.6215 113.599 35.8576V14.1413H121.167V33.8834ZM138.935 14.1413H146.503V49.0848H138.935V14.1413Z" fill="black"/>
<path d="M86.3119 3.0199C92.2346 3.0199 96.7972 4.40184 99.9998 7.16574C103.246 9.88576 104.869 13.7245 104.869 18.682C104.869 23.8588 103.246 27.8949 99.9998 30.7904C96.7972 33.6421 92.2346 35.0679 86.3119 35.0679H75.388V49.0848H67.6227V3.0199H86.3119ZM86.3119 28.4214C89.8655 28.4214 92.6075 27.6537 94.5378 26.1182C96.512 24.5388 97.4991 22.1259 97.4991 18.8794C97.4991 15.7645 96.512 13.4613 94.5378 11.9697C92.6075 10.4342 89.8655 9.6664 86.3119 9.6664H75.388V28.4214H86.3119ZM86.5752 32.0408H94.2088L105.659 49.0848H96.841L86.5752 32.0408Z" fill="black"/>
<path d="M115.037 60.3954H300.119" stroke="black" stroke-width="5"/>
</svg>
